<?xml version="1.0" encoding="UTF-8"?>
<svg width="56px" height="56px" viewBox="0 0 56 56" version="1.1" xmlns="http://www.w3.org/2000/svg" xmlns:xlink="http://www.w3.org/1999/xlink">
    <!-- Generator: sketchtool 55.2 (78181) - https://sketchapp.com -->
    <title>4093AA4A-E56F-485C-B235-F2FB0E26649F</title>
    <desc>Created with sketchtool.</desc>
    <defs>
        <path d="M50.4452256,11.3158679 L40.9223114,18.134866 C39.2535488,16.0337437 37.0766446,14.3483789 34.5754425,13.2611562 L38.2821336,2.02097966 C43.161914,3.94431744 47.3664547,7.19159831 50.4452256,11.3158679 Z M51.378157,12.6448289 C54.250525,17.0019298 55.920467,22.2097767 55.920467,27.804564 C55.920467,27.8638669 55.9202794,27.9231264 55.9199047,27.9823418 L44.44952,27.9823418 C44.3989863,24.8461252 43.4586564,21.9243732 41.8680219,19.4546764 L51.378157,12.6448289 Z M36.710192,1.45518817 L33.0106901,12.6735645 C31.4205136,12.1669972 29.7250907,11.8934529 27.965267,11.8934529 C26.4784838,11.8934529 25.0376679,12.0887 23.6674501,12.4547589 L19.9638346,1.22390865 C22.4987968,0.473988543 25.184621,0.0712306624 27.965267,0.0712306624 C31.0193832,0.0712306624 33.9591096,0.557104789 36.710192,1.45518817 Z M18.3772823,1.74539446 L22.0778956,12.9671408 C19.2824808,14.0276892 16.8525255,15.821419 15.0270438,18.1112131 L5.5033842,11.2916812 C8.7330039,6.97510822 13.1969122,3.62177363 18.3772823,1.74539446 Z M4.56901858,12.6196152 L14.078901,19.4292818 C12.4783381,21.9043346 11.5317211,24.8353691 11.481014,27.9823418 L0.0106293232,27.9823418 C0.0102546337,27.9231264 0.0100670106,27.8638669 0.0100670106,27.804564 C0.0100670106,22.1989807 1.68646013,16.9818325 4.56901858,12.6196152 Z" id="path-1"></path>
    </defs>
    <g id="Symbols" stroke="none" stroke-width="1" fill="none" fill-rule="evenodd">
        <g id="Icon-/-Score-/-Azul-/-3">
            <rect id="Rectangle" x="0" y="-0.1875" width="56" height="56"></rect>
            <g id="Path-2-+-Path-3-+-Path-4-+-Path-5-+-Path-6-Mask" opacity="0.64" transform="translate(0.000000, 13.812500)">
                <mask id="mask-2" fill="white">
                    <use xlink:href="#path-1"></use>
                </mask>
                <use id="Mask" fill="#FFFFFF" xlink:href="#path-1"></use>
                <polygon id="Path-2" fill="#E2F2FD" mask="url(#mask-2)" points="4.17835824 10.9984297 15.7838357 19.2916356 13.1550402 29.3483764 -3.4048 29.3483764"></polygon>
                <polygon id="Path-3" fill="#BBDEFB" mask="url(#mask-2)" points="19.0383021 0.650725912 23.242279 13.5250731 15.0446289 18.7021216 4.17835824 10.9984297 11.478867 3.65236049"></polygon>
                <polygon id="Path-4" fill="#90CAF9" mask="url(#mask-2)" points="19.5853711 -0.622222222 34.3778921 -0.622222222 37.4587357 0.650725912 33.3993862 14.0267862 23.242279 13.5250731 18.8360333 0.0712306624"></polygon>
                <polygon id="Path-5" fill="#64B5F6" mask="url(#mask-2)" points="37.910867 0.650725912 46.1360318 5.22678622 51.4523124 10.9984297 40.485082 19.1679104 33.3993862 14.0267862"></polygon>
                <polygon id="Path-6" fill="#42A5F5" mask="url(#mask-2)" points="51.5912063 11.2712307 57.354067 23.1823418 56.8961026 29.3483764 43.6805097 29.3483764 40.485082 19.1679104"></polygon>
            </g>
            <g id="Group-46" transform="translate(25.000000, 18.812500)" fill="#616161" stroke="#FFFFFF" stroke-width="2">
                <path d="M3.32798461,-1 C4.00004789,-1 4.56726364,-0.500253837 4.65192129,0.166456096 L7.4632215,22.3064742 C7.75321796,24.5903025 6.13689792,26.6767997 3.85306965,26.9667961 C3.67891511,26.98891 3.50353752,27 3.32798461,27 C1.02581834,27 -0.840456155,25.1337255 -0.840456155,22.8315592 C-0.840456155,22.6560063 -0.829366111,22.4806287 -0.807252277,22.3064742 L2.00404793,0.166456096 C2.08870558,-0.500253837 2.65592133,-1 3.32798461,-1 Z" id="Combined-Shape-Copy-2"></path>
            </g>
        </g>
    </g>
</svg>