<?xml version="1.0" encoding="UTF-8"?>
<svg width="49px" height="42px" viewBox="0 0 49 42" version="1.1" xmlns="http://www.w3.org/2000/svg" xmlns:xlink="http://www.w3.org/1999/xlink">
    <!-- Generator: sketchtool 55.2 (78181) - https://sketchapp.com -->
    <title>7B722F30-1B9E-4622-97B4-805655E06D65</title>
    <desc>Created with sketchtool.</desc>
    <g id="Teste-de-Front-end" stroke="none" stroke-width="1" fill="none" fill-rule="evenodd">
        <g id="Página-de-produto-/-Desktop" transform="translate(-1087.000000, -209.000000)" fill="#F4511E">
            <g id="hero-cartao" transform="translate(0.000000, 152.000000)">
                <g id="Group" transform="translate(1085.274911, 32.000000)">
                    <g id="arrow" transform="translate(26.000000, 45.958332) rotate(-265.000000) translate(-26.000000, -45.958332) translate(3.000000, 21.958332)">
                        <path d="M44.8650101,46.0524736 C38.4161122,32.0401709 27.4959466,20.0180266 14.1332865,12.0387002 C12.5822558,11.0999686 11.0312965,10.2784624 9.48033715,9.45695621 C11.2115156,12.4472416 12.1081165,15.9059296 12.6468832,19.3057908 C12.6468119,19.1885652 12.8262819,20.1264764 12.7070514,20.1850179 C12.5877852,20.1849465 12.3487178,19.3056124 12.3487892,19.4228379 C12.0500531,18.4848554 11.7512812,17.4882601 11.5717756,16.4917361 C11.452331,16.198601 11.3328865,15.9054658 11.1538089,15.612295 C10.8552868,15.025989 10.5568004,14.4982958 10.258314,13.9706026 C9.54200362,12.7979193 8.70649846,11.7423901 7.81139591,10.7454381 C6.67758269,9.45527956 5.42453899,8.22366243 4.17153097,7.05065806 C3.75399244,6.87457006 3.3364539,6.69848206 2.91891537,6.52239407 C2.85928229,6.52235839 2.85928229,6.52235839 2.79964922,6.52232272 C2.74001615,6.52228705 2.73998047,6.46367428 2.6803474,6.46363861 C2.56104558,6.4049545 2.5014125,6.40491883 2.38211068,6.34623472 C2.26280886,6.28755061 2.08344588,5.5254777 2.14311463,5.58412613 C1.963823,4.93927874 1.78453137,4.29443135 1.60523974,3.64958396 C1.42594811,3.00473656 1.30628955,2.35992485 1.12699792,1.71507745 C1.12692658,1.59785193 1.00723234,0.894427451 1.00723234,0.894427451 C1.06690109,0.953075886 1.18616724,0.953147233 1.24583599,1.01179567 C1.24576464,0.894570146 1.24572897,0.835957384 1.24572897,0.835957384 C1.30539771,0.894605819 1.36503079,0.894641493 1.36506646,0.953254254 L1.36503079,0.894641493 C4.52572638,1.13098324 7.62675324,1.30867655 10.7874488,1.54501829 C12.278347,1.66313566 13.7692095,1.72264026 15.2601077,1.84075762 C16.0950064,1.89986981 16.9299051,1.958982 17.7051708,2.01805852 C18.182271,2.07695667 18.8383775,2.31180012 19.255595,1.96037327 C19.2555593,1.90176051 19.2555593,1.90176051 19.2555593,1.90176051 L19.3151924,1.90179618 C19.6730622,2.01923575 20.0321092,4.07089643 20.0919563,4.42260867 C20.271248,5.06745606 20.8086948,6.2986451 20.5705906,7.00185554 C20.2729246,7.82225583 17.5294822,7.29309999 16.8138853,7.29267191 C15.7404543,7.23341702 14.6073902,7.17412646 13.5339592,7.11487158 C22.9594095,12.7473331 31.0741808,20.4304564 37.2814785,29.4019189 C39.9076168,33.1547052 42.1164664,37.1416929 43.9676601,41.3629176 C44.5050713,42.5354938 44.7443884,43.8251173 44.9836698,45.056128 C45.0434456,45.2906147 45.3426455,46.9905631 44.8650101,46.0524736 Z" id="Path" transform="translate(23.069148, 23.584235) rotate(178.000000) translate(-23.069148, -23.584235) "></path>
                    </g>
                </g>
            </g>
        </g>
    </g>
</svg>