<?xml version="1.0" encoding="UTF-8"?>
<svg width="24px" height="24px" viewBox="0 0 24 24" version="1.1" xmlns="http://www.w3.org/2000/svg" xmlns:xlink="http://www.w3.org/1999/xlink">
    <!-- Generator: sketchtool 55.2 (78181) - https://sketchapp.com -->
    <title>EC4C85B1-3796-4594-9F9F-C8F191643538</title>
    <desc>Created with sketchtool.</desc>
    <g id="Symbols" stroke="none" stroke-width="1" fill="none" fill-rule="evenodd">
        <g id="Icon-/-Seguro-/-Grande-/-Branco">
            <g id="icons8-lock">
                <path d="M12,2 C8.6761905,2 6,4.6761905 6,8 L6,9 C4.9,9 4,9.9 4,11 L4,21 C4,22.1 4.9,23 6,23 L18,23 C19.1,23 20,22.1 20,21 L20,11 C20,9.9 19.1,9 18,9 L18,8 C18,4.6761905 15.32381,2 12,2 Z M12,4 C14.27619,4 16,5.7238095 16,8 L16,9 L8,9 L8,8 C8,5.7238095 9.7238095,4 12,4 Z M12,14 C13.1,14 14,14.9 14,16 C14,17.1 13.1,18 12,18 C10.9,18 10,17.1 10,16 C10,14.9 10.9,14 12,14 Z" id="Shape" fill="#FFFFFF" fill-rule="nonzero"></path>
                <rect id="Rectangle" x="0" y="0" width="24" height="24"></rect>
            </g>
        </g>
    </g>
</svg>