<?xml version="1.0" encoding="UTF-8"?>
<svg width="112px" height="16px" viewBox="0 0 112 16" version="1.1" xmlns="http://www.w3.org/2000/svg" xmlns:xlink="http://www.w3.org/1999/xlink">
    <!-- Generator: sketchtool 55.2 (78181) - https://sketchapp.com -->
    <title>801C14CB-9011-4D55-AEC0-3B3757A3EB9E</title>
    <desc>Created with sketchtool.</desc>
    <g id="Teste-de-Front-end" stroke="none" stroke-width="1" fill="none" fill-rule="evenodd">
        <g id="Página-de-produto-/-Desktop" transform="translate(-420.000000, -339.000000)" fill="#FBC02D">
            <g id="hero-cartao" transform="translate(0.000000, 152.000000)">
                <g id="Group-15" transform="translate(420.000000, 98.000000)">
                    <g id="Group-61">
                        <g id="Group-16" transform="translate(0.000000, 89.000000)">
                            <g id="Icon-/-Avaliação-/-Completa">
                                <g id="avaliacao-completa">
                                    <g id="Icon-/-Avaliação-/-Amarela-/-Inteira">
                                        <g id="icons8-star">
                                            <path d="M8,12.8728 L11.9752,15.272 C12.6024,15.6504 13.376,15.088 13.2096,14.3752 L12.1544,9.8528 L15.6672,6.8096 C16.2208,6.3304 15.9248,5.4208 15.1952,5.3592 L10.5712,4.9672 L8.7624,0.6992 C8.4768,0.0264 7.5232,0.0264 7.2376,0.6992 L5.4288,4.9672 L0.8048,5.3592 C0.0752,5.4208 -0.2208,6.3304 0.3328,6.8096 L3.8456,9.8528 L2.7904,14.3752 C2.624,15.088 3.3976,15.6504 4.0248,15.272 L8,12.8728 Z" id="Path"></path>
                                        </g>
                                    </g>
                                    <g id="Icon-/-Avaliação-/-Amarela-/-Inteira" transform="translate(24.000000, 0.000000)">
                                        <g id="icons8-star">
                                            <path d="M8,12.8728 L11.9752,15.272 C12.6024,15.6504 13.376,15.088 13.2096,14.3752 L12.1544,9.8528 L15.6672,6.8096 C16.2208,6.3304 15.9248,5.4208 15.1952,5.3592 L10.5712,4.9672 L8.7624,0.6992 C8.4768,0.0264 7.5232,0.0264 7.2376,0.6992 L5.4288,4.9672 L0.8048,5.3592 C0.0752,5.4208 -0.2208,6.3304 0.3328,6.8096 L3.8456,9.8528 L2.7904,14.3752 C2.624,15.088 3.3976,15.6504 4.0248,15.272 L8,12.8728 Z" id="Path"></path>
                                        </g>
                                    </g>
                                    <g id="Icon-/-Avaliação-/-Amarela-/-Inteira" transform="translate(48.000000, 0.000000)">
                                        <g id="icons8-star">
                                            <path d="M8,12.8728 L11.9752,15.272 C12.6024,15.6504 13.376,15.088 13.2096,14.3752 L12.1544,9.8528 L15.6672,6.8096 C16.2208,6.3304 15.9248,5.4208 15.1952,5.3592 L10.5712,4.9672 L8.7624,0.6992 C8.4768,0.0264 7.5232,0.0264 7.2376,0.6992 L5.4288,4.9672 L0.8048,5.3592 C0.0752,5.4208 -0.2208,6.3304 0.3328,6.8096 L3.8456,9.8528 L2.7904,14.3752 C2.624,15.088 3.3976,15.6504 4.0248,15.272 L8,12.8728 Z" id="Path"></path>
                                        </g>
                                    </g>
                                    <g id="Icon-/-Avaliação-/-Amarela-/-Inteira" transform="translate(72.000000, 0.000000)">
                                        <g id="icons8-star">
                                            <path d="M8,12.8728 L11.9752,15.272 C12.6024,15.6504 13.376,15.088 13.2096,14.3752 L12.1544,9.8528 L15.6672,6.8096 C16.2208,6.3304 15.9248,5.4208 15.1952,5.3592 L10.5712,4.9672 L8.7624,0.6992 C8.4768,0.0264 7.5232,0.0264 7.2376,0.6992 L5.4288,4.9672 L0.8048,5.3592 C0.0752,5.4208 -0.2208,6.3304 0.3328,6.8096 L3.8456,9.8528 L2.7904,14.3752 C2.624,15.088 3.3976,15.6504 4.0248,15.272 L8,12.8728 Z" id="Path"></path>
                                        </g>
                                    </g>
                                    <g id="Icon-/-Avaliação-/-Amarela-/-Inteira" transform="translate(96.000000, 0.000000)">
                                        <g id="icons8-star">
                                            <path d="M8,12.8728 L11.9752,15.272 C12.6024,15.6504 13.376,15.088 13.2096,14.3752 L12.1544,9.8528 L15.6672,6.8096 C16.2208,6.3304 15.9248,5.4208 15.1952,5.3592 L10.5712,4.9672 L8.7624,0.6992 C8.4768,0.0264 7.5232,0.0264 7.2376,0.6992 L5.4288,4.9672 L0.8048,5.3592 C0.0752,5.4208 -0.2208,6.3304 0.3328,6.8096 L3.8456,9.8528 L2.7904,14.3752 C2.624,15.088 3.3976,15.6504 4.0248,15.272 L8,12.8728 Z" id="Path"></path>
                                        </g>
                                    </g>
                                </g>
                            </g>
                        </g>
                    </g>
                </g>
            </g>
        </g>
    </g>
</svg>