<?xml version="1.0" encoding="UTF-8"?>
<svg width="32px" height="32px" viewBox="0 0 32 32" version="1.1" xmlns="http://www.w3.org/2000/svg" xmlns:xlink="http://www.w3.org/1999/xlink">
    <!-- Generator: sketchtool 55.2 (78181) - https://sketchapp.com -->
    <title>653DF82A-1610-4BDA-93B7-9BE0EE456334</title>
    <desc>Created with sketchtool.</desc>
    <g id="Symbols" stroke="none" stroke-width="1" fill="none" fill-rule="evenodd">
        <g id="Icon-/-Benefícios-/-Info">
            <g id="icons8-info-copy">
                <path d="M26,16 C26,21.5225 21.5225,26 16,26 C10.4775,26 6,21.5225 6,16 C6,10.4775 10.4775,6 16,6 C21.5225,6 26,10.4775 26,16 Z" id="Path" fill="#7DA5C5" fill-rule="nonzero"></path>
                <rect id="Rectangle" x="0" y="0" width="32" height="32"></rect>
                <polygon id="Path" fill="#FFFFFF" fill-rule="nonzero" points="15 15 17 15 17 20.5 15 20.5"></polygon>
                <path d="M17.25,12.25 C17.25,12.9395 16.6895,13.5 16,13.5 C15.3105,13.5 14.75,12.9395 14.75,12.25 C14.75,11.5605 15.3105,11 16,11 C16.6895,11 17.25,11.5605 17.25,12.25 Z" id="Path" fill="#FFFFFF" fill-rule="nonzero"></path>
            </g>
        </g>
    </g>
</svg>