<?xml version="1.0" encoding="UTF-8"?>
<svg width="24px" height="24px" viewBox="0 0 24 24" version="1.1" xmlns="http://www.w3.org/2000/svg" xmlns:xlink="http://www.w3.org/1999/xlink">
    <!-- Generator: sketchtool 55.2 (78181) - https://sketchapp.com -->
    <title>F9E5CBC3-28BE-47AC-B1D1-98D9D2CAC452</title>
    <desc>Created with sketchtool.</desc>
    <g id="Symbols" stroke="none" stroke-width="1" fill="none" fill-rule="evenodd">
        <g id="Icon-/-Seta-/-Topo">
            <g id="icons8-down_squared">
                <rect id="Rectangle" x="0" y="0" width="24" height="24"></rect>
                <path d="M19,3 L5,3 C3.897,3 3,3.897 3,5 L3,19 C3,20.103 3.897,21 5,21 L19,21 C20.103,21 21,20.103 21,19 L21,5 C21,3.897 20.103,3 19,3 Z M11.293,14.707 L7.293,10.707 C6.903,10.317 6.903,9.683 7.293,9.293 L7.293,9.293 C7.683,8.903 8.317,8.903 8.707,9.293 L12,12.586 L15.293,9.293 C15.683,8.903 16.317,8.903 16.707,9.293 L16.707,9.293 C17.097,9.683 17.097,10.317 16.707,10.707 L12.707,14.707 C12.317,15.098 11.683,15.098 11.293,14.707 Z" id="Shape" fill-opacity="0.6" fill="#FFFFFF" fill-rule="nonzero"></path>
            </g>
        </g>
    </g>
</svg>