<?xml version="1.0" encoding="UTF-8"?>
<svg width="38px" height="12px" viewBox="0 0 38 12" version="1.1" xmlns="http://www.w3.org/2000/svg" xmlns:xlink="http://www.w3.org/1999/xlink">
    <!-- Generator: sketchtool 55.2 (78181) - https://sketchapp.com -->
    <title>3DCAAE6B-3802-49A4-88F4-D6ABD929DEC6</title>
    <desc>Created with sketchtool.</desc>
    <g id="Teste-de-Front-end" stroke="none" stroke-width="1" fill="none" fill-rule="evenodd">
        <g id="Página-de-produto-/-Desktop" transform="translate(-561.000000, -250.000000)" fill="#1A1F71">
            <g id="hero-cartao" transform="translate(0.000000, 152.000000)">
                <g id="Group-15" transform="translate(420.000000, 98.000000)">
                    <g id="Group-61">
                        <g id="Group-51">
                            <g id="Icon-/-Bandeira-/-Visa" transform="translate(141.000000, 0.000000)">
                                <g id="Visa_Inc._logo" transform="translate(0.000000, -0.000000)">
                                    <polygon id="polygon9" fill-rule="nonzero" points="16.4509358 11.8142151 13.3756031 11.8142151 15.2991365 0.210336951 18.3743009 0.210336951"></polygon>
                                    <path d="M27.5992897,0.494018662 C26.992699,0.259230618 26.030596,-4.25961852e-06 24.8409584,-4.25961852e-06 C21.8039686,-4.25961852e-06 19.6653453,1.58001591 19.652228,3.83896895 C19.6270024,5.50561951 21.1834197,6.43131773 22.3474954,6.98703199 C23.5373012,7.55488763 23.9417511,7.92552787 23.9417511,8.43169217 C23.9296428,9.20906866 22.9803208,9.56740345 22.0949035,9.56740345 C20.8670912,9.56740345 20.2092085,9.38265759 19.2094353,8.95016193 L18.8044809,8.76475977 L18.3741328,11.3695781 C19.0954157,11.6901761 20.4242984,11.9746782 21.8039686,11.9871477 C25.0308228,11.9871477 27.1316078,10.4315744 27.156497,8.02429964 C27.1687734,6.70335027 26.3469246,5.69118574 24.5750809,4.86409522 C23.4994629,4.33315594 22.8407393,3.9751493 22.8407393,3.43190456 C22.8533521,2.93804571 23.3978879,2.43220955 24.6120784,2.43220955 C25.6118516,2.40743458 26.34642,2.64189448 26.902896,2.87651845 L27.1810499,2.99973705 L27.5992897,0.494018662 L27.5992897,0.494018662 L27.5992897,0.494018662 Z" id="path11" fill-rule="nonzero"></path>
                                    <path d="M31.686672,7.70337343 C31.9399366,7.03674602 32.9144843,4.45670269 32.9144843,4.45670269 C32.9017033,4.48147767 33.1672444,3.77776983 33.3191023,3.34576639 L33.5340241,4.34562547 C33.5340241,4.34562547 34.1163983,7.12321233 34.2428625,7.70337343 C33.7622314,7.70337343 32.2941035,7.70337343 31.686672,7.70337343 L31.686672,7.70337343 Z M35.482783,0.210336951 L33.1040123,0.210336951 C32.3704529,0.210336951 31.8131361,0.420021871 31.4966394,1.1731156 L26.9286261,11.814051 L30.1554802,11.814051 C30.1554802,11.814051 30.6867306,10.3818604 30.8009183,10.0734037 C31.1549171,10.0734037 34.2939863,10.0734037 34.7493918,10.0734037 C34.8376813,10.4807962 35.1163397,11.814051 35.1163397,11.814051 L37.9638013,11.814051 L35.482783,0.210336951 L35.482783,0.210336951 L35.482783,0.210336951 Z" id="path13" fill-rule="nonzero"></path>
                                    <path d="M3.23186317,1.71916128 C2.28612753,1.17972298 1.2067769,0.745872885 3.48566269e-08,0.44479685 L0.0506193335,0.210336951 L4.99852965,0.210336951 C5.66919331,0.234783785 6.21339281,0.444632777 6.39047628,1.1857492 L7.46579302,6.51727456 C7.46589351,6.51760855 7.46599394,6.51794241 7.46609433,6.51827626 L7.79520385,8.12307141 L10.806968,0.210336951 L14.0588796,0.210336951 L9.22498883,11.8019097 L5.9729091,11.8019097 L3.23186317,1.71916128 Z" id="Combined-Shape" fill-rule="nonzero"></path>
                                </g>
                            </g>
                        </g>
                    </g>
                </g>
            </g>
        </g>
    </g>
</svg>